<?xml version="1.0" encoding="UTF-8"?>
<!-- Generated by Pixelmator Pro 3.0 -->
<svg width="15" height="6" viewBox="0 0 15 6" xmlns="http://www.w3.org/2000/svg" xmlns:xlink="http://www.w3.org/1999/xlink">
    <path id="path1" fill="#000000" fill-rule="evenodd" stroke="none" d="M 3.280454 0.858863 C 2.010472 0.859385 0.937113 1.942705 0.937501 3.002695 C 0.937888 4.062685 2.012038 5.145124 3.28202 5.144603 C 3.917651 5.144341 4.540698 4.882936 5.195512 4.427807 C 5.751626 4.040158 6.293952 3.539356 6.854385 3.000265 C 6.293558 2.461635 5.750866 1.960709 5.19447 1.574087 C 4.539322 1.119496 3.916084 0.858603 3.280454 0.858863 Z M 7.499772 2.37714 C 6.945192 1.844238 6.36627 1.311885 5.761738 0.892134 C 5.029033 0.382164 4.207017 0.001352 3.28014 0.001733 C 1.463272 0.002479 -0.000549 1.49738 1e-06 3.00308 C 0.000551 4.50878 1.465465 6.002478 3.282333 6.001732 C 4.20921 6.001351 5.030947 5.619294 5.763281 5.109293 C 6.367505 4.689045 6.946037 4.156217 7.500228 3.62286 C 8.054808 4.155762 8.63373 4.688115 9.238261 5.107867 C 9.970966 5.617266 10.792982 5.998648 11.719833 5.998268 C 13.536728 5.997521 15.00055 4.50262 15.000001 2.99692 C 14.99945 1.49122 13.534536 -0.002478 11.717639 -0.001732 C 10.790789 -0.001351 9.969052 0.380706 9.236719 0.890707 C 8.632495 1.310955 8.053963 1.843783 7.499772 2.37714 Z M 8.145615 2.999735 C 8.706442 3.538365 9.249134 4.039291 9.80553 4.425914 C 10.460677 4.880505 11.083915 5.141399 11.719519 5.141138 C 12.989528 5.140616 14.062887 4.057295 14.0625 2.997305 C 14.062111 1.937315 12.987961 0.854877 11.717954 0.855399 C 11.08235 0.855659 10.459302 1.117065 9.804487 1.572194 C 9.248374 1.959842 8.706048 2.460644 8.145615 2.999735 L 8.145615 2.999735 Z"/>
</svg>
